<svg width="113" height="113" viewBox="0 0 113 113" fill="none" xmlns="http://www.w3.org/2000/svg">
<circle cx="56.5" cy="56.5" r="56.5" fill="url(#paint0_linear_1162_504)"/>
<circle cx="56.5" cy="56.5" r="56" stroke="black" stroke-opacity="0.2"/>
<path d="M64.2504 67.1916L62.8991 68.6142C62.8991 68.6142 59.6874 71.9956 50.9208 62.7659C42.1542 53.5362 45.3659 50.155 45.3659 50.155L46.2168 49.2592C48.313 47.0523 48.5106 43.5093 46.6818 40.9227L42.9408 35.6316C40.6773 32.4302 36.3034 32.0073 33.709 34.7388L29.0525 39.6412C27.7661 40.9956 26.904 42.7512 27.0086 44.6989C27.276 49.6815 29.4051 60.4018 41.2857 72.91C53.8845 86.1741 65.7059 86.7012 70.5401 86.2242C72.0692 86.0732 73.3989 85.2487 74.4704 84.1205L78.6849 79.6835C81.5297 76.6886 80.7275 71.5542 77.0876 69.4591L71.4198 66.1966C69.0298 64.821 66.1183 65.225 64.2504 67.1916Z" fill="url(#paint1_linear_1162_504)"/>
<path d="M71.5001 56.667C79.6924 56.667 86.3336 50.0258 86.3336 41.8335C86.3336 33.6412 79.6924 27 71.5001 27C63.3079 27 56.6666 33.6412 56.6666 41.8335C56.6666 44.2064 57.2238 46.4491 58.2144 48.4381C58.4778 48.9666 58.5653 49.5707 58.4128 50.1412L57.5293 53.4431C57.1457 54.8766 58.457 56.1879 59.8905 55.8043L63.1925 54.9208C63.763 54.7683 64.367 54.8558 64.8957 55.1193C66.8845 56.1098 69.1274 56.667 71.5001 56.667Z" fill="url(#paint2_linear_1162_504)"/>
<defs>
<linearGradient id="paint0_linear_1162_504" x1="56.5" y1="0" x2="56.5" y2="113" gradientUnits="userSpaceOnUse">
<stop stop-color="#F7F9FF"/>
<stop offset="1" stop-color="#EAF2FF"/>
</linearGradient>
<linearGradient id="paint1_linear_1162_504" x1="53.7003" y1="32.9331" x2="53.7003" y2="86.3336" gradientUnits="userSpaceOnUse">
<stop stop-color="#2E5AA8"/>
<stop offset="1" stop-color="#3A80C1"/>
</linearGradient>
<linearGradient id="paint2_linear_1162_504" x1="71.5001" y1="27" x2="71.5001" y2="56.667" gradientUnits="userSpaceOnUse">
<stop stop-color="#2E5AA8"/>
<stop offset="1" stop-color="#3A80C1"/>
</linearGradient>
</defs>
</svg>
