<svg width="109" height="110" viewBox="0 0 109 110" fill="none" xmlns="http://www.w3.org/2000/svg">
<g filter="url(#filter0_d_1162_495)">
<circle cx="54.5365" cy="54.2435" r="43.0125" fill="url(#paint0_linear_1162_495)"/>
<circle cx="54.5365" cy="54.2435" r="42.4943" stroke="#6B7280" stroke-opacity="0.5" stroke-width="1.03645"/>
</g>
<path d="M62.8147 35.8238C62.8147 35.8238 63.2861 34.5613 65.8251 32.9589C68.2613 31.4228 66.3915 29.2998 62.8147 30.0813C60.3454 30.6192 61.1838 28.8506 57.7209 28.8506C54.2581 28.8506 55.0965 30.6192 52.627 30.0813C49.0503 29.2998 47.1804 31.4228 49.6167 32.9589C52.1557 34.5613 52.627 35.8238 52.627 35.8238H62.8147Z" fill="white"/>
<path d="M72.5549 51.5749C72.5549 50.8519 72.1263 50.2303 71.5093 49.944C72.1263 49.656 72.5566 49.0359 72.5566 48.313C72.5566 47.5885 72.1263 46.9668 71.5093 46.6805C72.1247 46.3942 72.5549 45.7741 72.5549 45.0479C72.5549 44.0529 71.7481 43.2461 70.7515 43.2461H64.7401C63.7451 43.2461 62.9367 44.0529 62.9367 45.0479C62.9367 45.7741 63.367 46.3942 63.9839 46.6805C63.367 46.9668 62.9367 47.5885 62.9367 48.313C62.9367 49.036 63.367 49.6561 63.9839 49.944C63.367 50.2303 62.9367 50.852 62.9367 51.5749C62.9367 52.2994 63.367 52.9212 63.9839 53.2059C63.367 53.4938 62.9367 54.1139 62.9367 54.8384C62.9367 55.8351 63.745 56.6419 64.7401 56.6419H70.7515C71.7465 56.6419 72.5549 55.8351 72.5549 54.8384C72.5549 54.1139 72.1247 53.4938 71.5093 53.2075C72.1247 52.9212 72.5549 52.2994 72.5549 51.5749Z" fill="white"/>
<path d="M63.8624 37.9268C61.8375 37.9268 52.3965 37.9268 52.3965 37.9268C47.4387 37.9268 46.053 41.8072 42.2136 41.8072V54.1226L43.892 54.0451C56.7184 53.0516 55.5984 41.978 55.5984 41.978C55.5984 41.978 58.7433 41.978 62.7962 41.978C66.8476 41.978 67.0611 37.9268 63.8624 37.9268Z" fill="white"/>
<path d="M40.4815 40.3672H35.3623V56.9996H40.4815V40.3672Z" fill="white"/>
<path d="M72.3355 58.0288C71.7818 58.3547 71.138 58.5477 70.4482 58.5477H64.4368C62.385 58.5477 60.7145 56.8771 60.7145 54.8238C60.7145 54.2496 60.849 53.6927 61.0958 53.1929C60.849 52.6929 60.7145 52.1361 60.7145 51.5603C60.7145 50.9861 60.849 50.4292 61.0958 49.9294C60.849 49.4294 60.7145 48.8726 60.7145 48.2984C60.7145 47.7226 60.849 47.1657 61.0958 46.6659C60.8506 46.1659 60.7145 45.6091 60.7145 45.0333C60.7145 44.6315 60.7794 44.2456 60.8981 43.8833H57.1774C57.0049 45.7864 56.369 48.656 54.2824 51.1539C52.0092 53.8717 48.6238 55.4599 44.2276 55.8935C42.7975 58.665 41.7771 61.6533 41.7771 64.6637C41.7771 73.5051 48.9449 80.6729 57.7847 80.6729C66.6261 80.6729 73.7939 73.5051 73.7939 64.6637C73.794 62.4107 73.2198 60.1738 72.3355 58.0288Z" fill="white"/>
<defs>
<filter id="filter0_d_1162_495" x="0.123045" y="0.866492" width="108.827" height="108.827" filterUnits="userSpaceOnUse" color-interpolation-filters="sRGB">
<feFlood flood-opacity="0" result="BackgroundImageFix"/>
<feColorMatrix in="SourceAlpha" type="matrix" values="0 0 0 0 0 0 0 0 0 0 0 0 0 0 0 0 0 0 127 0" result="hardAlpha"/>
<feMorphology radius="1.03645" operator="dilate" in="SourceAlpha" result="effect1_dropShadow_1162_495"/>
<feOffset dy="1.03645"/>
<feGaussianBlur stdDeviation="5.18223"/>
<feComposite in2="hardAlpha" operator="out"/>
<feColorMatrix type="matrix" values="0 0 0 0 0 0 0 0 0 0 0 0 0 0 0 0 0 0 0.25 0"/>
<feBlend mode="normal" in2="BackgroundImageFix" result="effect1_dropShadow_1162_495"/>
<feBlend mode="normal" in="SourceGraphic" in2="effect1_dropShadow_1162_495" result="shape"/>
</filter>
<linearGradient id="paint0_linear_1162_495" x1="54.5365" y1="11.231" x2="54.5365" y2="97.256" gradientUnits="userSpaceOnUse">
<stop stop-color="#2E5AA8"/>
<stop offset="1" stop-color="#3A80C1"/>
</linearGradient>
</defs>
</svg>
