<svg width="110" height="110" viewBox="0 0 110 110" fill="none" xmlns="http://www.w3.org/2000/svg">
<g filter="url(#filter0_d_1097_4)">
<circle cx="54.6982" cy="53.64" r="43.0125" fill="url(#paint0_linear_1097_4)"/>
<circle cx="54.6982" cy="53.64" r="42.4943" stroke="#6B7280" stroke-opacity="0.5" stroke-width="1.03645"/>
</g>
<path fill-rule="evenodd" clip-rule="evenodd" d="M57.5694 33.3766C58.3178 31.1115 58.9971 28.8227 59.5819 26.5017L59.6094 26.3918L59.7264 25.9195C59.112 25.2299 58.1389 24.8387 57.2769 24.5934C53.7041 23.586 47.9649 24.1785 45.9933 25.879L48.358 31.6482C47.0863 29.9339 46.659 29.2301 45.9003 28.2751C45.582 28.4898 45.2806 28.7297 44.9986 28.9925C44.326 29.6172 43.7254 30.3077 43.6037 31.2701C43.5249 31.8943 43.6989 32.5283 44.2401 33.1768L49.6657 39.6608C50.3641 39.5432 51.0466 39.3713 51.7087 39.1297C51.3933 38.3592 51.0443 37.6006 50.7222 36.8263L52.6976 39.0153C54.7553 38.5699 56.41 38.8357 57.9521 39.6725L63.4545 32.8966C63.7812 32.4924 63.9301 32.0885 63.9288 31.6843C63.9006 30.5866 62.9564 29.7295 62.1437 29.1412L62.1372 29.1367C61.4935 28.6751 60.8033 28.3137 60.2974 28.0979L57.5694 33.3766ZM62.8252 54.9063C60.211 49.8676 54.1117 47.9572 49.2011 50.6395C44.2902 53.3215 42.4283 59.58 45.0425 64.619C47.6563 69.6579 53.7557 71.5681 58.6665 68.886C63.5774 66.2037 65.439 59.9453 62.8252 54.9063ZM50.5184 45.6186L51.5922 40.5794C46.9928 41.4571 39.6207 51.0572 37.2384 55.4222C36.0226 57.6501 34.9577 60.1044 34.0857 62.8481C32.3488 69.4887 34.0219 75.7008 41.0423 77.1477C45.441 78.0545 53.6444 78.1186 58.2706 77.873C63.244 77.6091 70.94 77.6171 72.9506 72.3778C76.1954 63.9207 70.2503 53.8457 64.8299 47.6794C64.1165 46.8678 63.379 46.1117 62.6159 45.4137C61.1435 44.0846 59.7105 42.7013 58.0314 41.6431L58.0294 41.6421C57.413 41.2575 56.772 40.9287 56.1032 40.6866L56.0988 40.685L55.98 40.643L58.4317 45.3269L55.6196 41.5018L54.871 40.4835H52.9949L51.8943 42.7654L50.5184 45.6186Z" fill="white"/>
<path d="M54.4911 65.5591L51.2098 62.2778C51.1585 62.2265 51.1986 62.1379 51.2711 62.1355C56.7705 61.9508 56.7038 54.1582 51.0709 54.1582H57.9114" stroke="white" stroke-width="1.03645" stroke-linecap="round" stroke-linejoin="round"/>
<path d="M51.0709 58.0962H54.4911H57.9114" stroke="white" stroke-width="1.03645" stroke-linecap="round" stroke-linejoin="round"/>
<defs>
<filter id="filter0_d_1097_4" x="0.284758" y="0.262977" width="108.827" height="108.827" filterUnits="userSpaceOnUse" color-interpolation-filters="sRGB">
<feFlood flood-opacity="0" result="BackgroundImageFix"/>
<feColorMatrix in="SourceAlpha" type="matrix" values="0 0 0 0 0 0 0 0 0 0 0 0 0 0 0 0 0 0 127 0" result="hardAlpha"/>
<feMorphology radius="1.03645" operator="dilate" in="SourceAlpha" result="effect1_dropShadow_1097_4"/>
<feOffset dy="1.03645"/>
<feGaussianBlur stdDeviation="5.18223"/>
<feComposite in2="hardAlpha" operator="out"/>
<feColorMatrix type="matrix" values="0 0 0 0 0 0 0 0 0 0 0 0 0 0 0 0 0 0 0.25 0"/>
<feBlend mode="normal" in2="BackgroundImageFix" result="effect1_dropShadow_1097_4"/>
<feBlend mode="normal" in="SourceGraphic" in2="effect1_dropShadow_1097_4" result="shape"/>
</filter>
<linearGradient id="paint0_linear_1097_4" x1="54.6982" y1="10.6274" x2="54.6982" y2="96.6525" gradientUnits="userSpaceOnUse">
<stop stop-color="#2E5AA8"/>
<stop offset="1" stop-color="#3A80C1"/>
</linearGradient>
</defs>
</svg>
