<svg width="110" height="110" viewBox="0 0 110 110" fill="none" xmlns="http://www.w3.org/2000/svg">
<g filter="url(#filter0_d_1162_497)">
<circle cx="55.3382" cy="54.2435" r="43.0125" fill="url(#paint0_linear_1162_497)"/>
<circle cx="55.3382" cy="54.2435" r="42.4943" stroke="#6B7280" stroke-opacity="0.5" stroke-width="1.03645"/>
</g>
<path d="M64.602 33.0015C61.935 33.0054 59.4393 34.3158 57.9217 36.5088C58.4904 37.9476 58.8166 39.5033 58.8166 41.1326C58.8166 42.738 58.4114 44.2141 57.8042 45.5982C59.306 47.891 61.8611 49.2739 64.602 49.2773C69.0981 49.2783 72.7432 45.6332 72.7421 41.1371C72.7407 36.6428 69.0963 33.0004 64.602 33.0015ZM71.8834 50.9677L67.0517 58.5248C68.2753 61.1949 68.9924 64.1175 69.0766 67.1757L69.1263 68.9881L67.9331 70.3486C66.21 72.317 64.1984 74.0235 61.9986 75.4695C62.8923 75.5695 63.7986 75.6232 64.7195 75.6232C72.02 75.6232 78.5515 72.3963 83.0066 67.3068C82.8097 60.1549 78.4648 53.7737 71.8834 50.9677Z" fill="white"/>
<path d="M46.0485 32.9966C44.9797 32.9966 43.9215 33.2071 42.9341 33.6161C41.9467 34.0251 41.0495 34.6246 40.2938 35.3803C39.5381 36.136 38.9387 37.0331 38.5297 38.0205C38.1207 39.0079 37.9102 40.0661 37.9102 41.1348C37.9102 42.2036 38.1207 43.2619 38.5297 44.2493C38.9387 45.2366 39.5381 46.1338 40.2938 46.8895C41.0495 47.6452 41.9467 48.2447 42.9341 48.6537C43.9215 49.0627 44.9797 49.2732 46.0485 49.2732C47.1172 49.2732 48.1755 49.0627 49.1628 48.6537C50.1502 48.2447 51.0474 47.6452 51.8031 46.8895C52.5588 46.1338 53.1583 45.2366 53.5673 44.2493C53.9762 43.2619 54.1867 42.2036 54.1867 41.1348C54.1867 40.0661 53.9762 39.0079 53.5673 38.0205C53.1583 37.0331 52.5588 36.1359 51.8031 35.3802C51.0474 34.6245 50.1502 34.0251 49.1628 33.6161C48.1755 33.2071 47.1172 32.9966 46.0485 32.9966ZM53.3284 50.962L46.2233 62.0766L39.0228 50.9699C32.4357 53.7652 28.0803 60.1415 27.8724 67.2942C32.3277 72.3874 38.8601 75.6192 46.1637 75.6192C53.4642 75.6192 59.9958 72.3916 64.451 67.3021C64.2541 60.1502 59.9098 53.7681 53.3284 50.962Z" fill="white"/>
<defs>
<filter id="filter0_d_1162_497" x="0.924711" y="0.866492" width="108.827" height="108.827" filterUnits="userSpaceOnUse" color-interpolation-filters="sRGB">
<feFlood flood-opacity="0" result="BackgroundImageFix"/>
<feColorMatrix in="SourceAlpha" type="matrix" values="0 0 0 0 0 0 0 0 0 0 0 0 0 0 0 0 0 0 127 0" result="hardAlpha"/>
<feMorphology radius="1.03645" operator="dilate" in="SourceAlpha" result="effect1_dropShadow_1162_497"/>
<feOffset dy="1.03645"/>
<feGaussianBlur stdDeviation="5.18223"/>
<feComposite in2="hardAlpha" operator="out"/>
<feColorMatrix type="matrix" values="0 0 0 0 0 0 0 0 0 0 0 0 0 0 0 0 0 0 0.25 0"/>
<feBlend mode="normal" in2="BackgroundImageFix" result="effect1_dropShadow_1162_497"/>
<feBlend mode="normal" in="SourceGraphic" in2="effect1_dropShadow_1162_497" result="shape"/>
</filter>
<linearGradient id="paint0_linear_1162_497" x1="55.3382" y1="11.231" x2="55.3382" y2="97.256" gradientUnits="userSpaceOnUse">
<stop stop-color="#2E5AA8"/>
<stop offset="1" stop-color="#3A80C1"/>
</linearGradient>
</defs>
</svg>
